<svg xmlns="http://www.w3.org/2000/svg" xml:space="preserve" fill-rule="evenodd" stroke-linejoin="round" stroke-miterlimit="2" clip-rule="evenodd" viewBox="0 0 192 192">
  <path fill="none" d="M0 0h192v192H0z"/>
  <clipPath id="a">
    <path d="M0 0h192v192H0z"/>
  </clipPath>
  <g clip-path="url(#a)">
    <path fill="#87ceeb" d="M0 0h192v192H0z"/>
    <path fill="#fff" d="M128.6 125.8c-5.7 12.2-15.5 16.2-28.5 13.5-14.5 11.3-27 9-38.2-3.7-12.2 2.2-19-3-22.5-12.5-27.6.8-23-35.6 2.5-34.7-.4-14.5 11.4-24.3 29.3-18 4.7-5.6 11-6.8 18.7-3.2a24 24 0 0 1 39.5-16c37-21.9 56.9 33 28.6 47 1.3 21-8.4 30.4-29.4 27.6Z"/>
  </g>
</svg>
